<?xml version="1.0" encoding="utf-8"?>
<!-- Generator: Adobe Illustrator 16.0.0, SVG Export Plug-In . SVG Version: 6.00 Build 0)  -->
<!DOCTYPE svg PUBLIC "-//W3C//DTD SVG 1.1//EN" "http://www.w3.org/Graphics/SVG/1.1/DTD/svg11.dtd">
<svg version="1.1" id="Layer_1" xmlns="http://www.w3.org/2000/svg" xmlns:xlink="http://www.w3.org/1999/xlink" x="0px" y="0px"
	 width="708.66px" height="708.66px" viewBox="0 0 708.66 708.66" enable-background="new 0 0 708.66 708.66" xml:space="preserve">
<path fill="#FFFFFF" d="M355.332,22.759c-83.021,53.089-138.064,146.087-138.064,251.942c0,101.096,50.224,190.439,127.058,244.519
	l1.683-68.648c-14.636-11.438-89.558-74.491-89.903-166.698c8.497,52.281,18.455,87.945,90.268,151.825l2.29-93.421
	c-0.007,0.008-0.02,0.03-0.02,0.03s-79.059-57.054-79.388-144.873c7.387,45.437,16.075,76.278,79.714,132.361l2.3-93.815
	c-6.761-5.147-57.323-45.649-57.551-105.841c5.396,33.19,11.734,55.778,57.778,96.541l3.782-154.235v-2.16l0.026,1.079l0.025-1.079
	v2.16l3.789,154.377c46.188-40.852,52.536-63.452,57.939-96.683c-0.229,60.699-51.649,101.378-57.714,105.968l2.3,93.834
	c63.788-56.174,72.483-87.03,79.876-132.507c-0.327,87.819-79.388,144.873-79.388,144.873s-0.071-0.11-0.193-0.303l2.3,93.836
	c71.959-63.97,81.93-99.648,90.434-151.968c-0.349,92.537-75.816,155.72-90.069,166.825l1.682,68.555
	c76.863-54.071,127.109-143.429,127.109-244.552C493.396,168.847,438.355,75.848,355.332,22.759z"/>
<path fill="#FFFFFF" d="M58.018,325.211c-11.306,51.41,3.03,107.324,43.012,147.307c38.186,38.187,90.9,52.96,140.348,44.365
	l-25.293-26.563c-9.849,1.204-61.963,5.689-96.921-29.008c22.957,16.537,40.189,26.248,91.441,23.25l-34.421-36.148
	c0,0.004,0.005,0.018,0.005,0.018s-51.413,8.312-84.707-24.735c19.952,14.37,34.883,22.741,80.103,19.886l-34.566-36.303
	c-4.498,0.609-38.894,4.408-61.713-18.24c14.573,10.499,25.499,16.637,58.287,14.643l-56.828-59.687l-0.815-0.813l0.418,0.395
	l-0.398-0.417l0.816,0.817l59.74,56.879c2.016-32.877-4.124-43.811-14.633-58.401c22.839,23.012,18.784,57.797,18.225,61.823
	l36.312,34.575c2.876-45.314-5.495-60.253-19.879-80.22c33.046,33.293,24.735,84.702,24.735,84.702s-0.068-0.014-0.188-0.04
	l36.312,34.572c3.018-51.341-6.692-68.582-23.242-91.559c34.82,35.085,30.179,87.459,28.992,97.031l26.528,25.263
	c8.608-49.457-6.165-102.187-44.358-140.382C165.344,328.239,109.429,313.902,58.018,325.211z"/>
<path fill="#FFFFFF" d="M651.14,325.211c11.306,51.41-3.03,107.324-43.014,147.307c-38.185,38.187-90.898,52.96-140.348,44.365
	l25.295-26.563c9.848,1.204,61.963,5.689,96.92-29.008c-22.956,16.537-40.188,26.248-91.441,23.25l34.422-36.148
	c0,0.004-0.005,0.018-0.005,0.018s51.412,8.312,84.706-24.735c-19.952,14.37-34.883,22.741-80.103,19.886l34.566-36.303
	c4.497,0.609,38.894,4.408,61.715-18.24c-14.575,10.499-25.5,16.637-58.29,14.643l56.829-59.687l0.816-0.813l-0.419,0.395
	l0.398-0.417l-0.817,0.817l-59.739,56.879c-2.016-32.877,4.123-43.811,14.635-58.401c-22.84,23.012-18.784,57.797-18.225,61.823
	l-36.313,34.575c-2.875-45.314,5.495-60.253,19.881-80.22c-33.048,33.293-24.736,84.702-24.736,84.702s0.069-0.014,0.189-0.04
	l-36.312,34.572c-3.018-51.341,6.692-68.582,23.242-91.559c-34.822,35.085-30.18,87.459-28.992,97.031l-26.528,25.263
	c-8.608-49.457,6.164-102.187,44.358-140.382C543.813,328.239,599.729,313.902,651.14,325.211z"/>
</svg>
